{
	"asset":{
		"version":"2.0",
		"generator":"Created using the official Cinema 4D glTF Exporter 1.000x284978"
	},
	"scenes":[{
		"nodes":[0]
	}],
	"nodes":[{
		"name":"Default",
		"translation":[0.0,
		0.0,
		0.0],
		"rotation":[0.0,
		0.0,
		0.0,
		-1.0],
		"scale":[1.0,
		1.0,
		1.0],
		"mesh":0
	}],
	"meshes":[{
		"name":"Default",
		"primitives":[{
			"attributes":{
				"POSITION":1,
				"NORMAL":2
			},
			"indices":0,
			"material":0
		}]
	}],
	"accessors":[{
		"bufferView":0,
		"type":"SCALAR",
		"byteOffset":0,
		"componentType":5123,
		"count":260676,
		"min":[0],
		"max":[43526]
	},
	{
		"bufferView":1,
		"type":"VEC3",
		"byteOffset":0,
		"componentType":5126,
		"count":43527,
		"min":[-49.98981857299805,
		-45.701904296875,
		-49.935970306396487],
		"max":[50.0084114074707,
		45.46253967285156,
		50.05721664428711]
	},
	{
		"bufferView":1,
		"type":"VEC3",
		"byteOffset":12,
		"componentType":5126,
		"count":43527,
		"min":[-0.9999603629112244,
		-0.9999984502792358,
		-0.9999544620513916],
		"max":[0.9999655485153198,
		0.9999372959136963,
		0.9999881982803345]
	},
	{
		"bufferView":2,
		"type":"SCALAR",
		"byteOffset":0,
		"componentType":5126,
		"count":4,
		"min":[0.0],
		"max":[3.0333333015441896]
	},
	{
		"bufferView":2,
		"type":"VEC3",
		"byteOffset":16,
		"componentType":5126,
		"count":4,
		"min":[0.0,
		0.0,
		0.0],
		"max":[0.0,
		0.0,
		0.0]
	},
	{
		"bufferView":3,
		"type":"SCALAR",
		"byteOffset":0,
		"componentType":5126,
		"count":5,
		"min":[0.0],
		"max":[3.0333333015441896]
	},
	{
		"bufferView":3,
		"type":"VEC4",
		"byteOffset":20,
		"componentType":5126,
		"count":5,
		"min":[0.0,
		-0.999998927116394,
		0.0,
		-1.0],
		"max":[0.0,
		0.0,
		0.0,
		0.9999957084655762]
	},
	{
		"bufferView":4,
		"type":"SCALAR",
		"byteOffset":0,
		"componentType":5126,
		"count":4,
		"min":[0.0],
		"max":[3.0333333015441896]
	},
	{
		"bufferView":4,
		"type":"VEC3",
		"byteOffset":16,
		"componentType":5126,
		"count":4,
		"min":[1.0,
		1.0,
		1.0],
		"max":[1.0,
		1.0,
		1.0]
	}],
	"bufferViews":[{
		"buffer":0,
		"byteOffset":0,
		"byteLength":521352,
		"target":34963
	},
	{
		"buffer":0,
		"byteOffset":521352,
		"byteLength":1044648,
		"target":34962,
		"byteStride":24
	},
	{
		"buffer":1,
		"byteOffset":0,
		"byteLength":64
	},
	{
		"buffer":1,
		"byteOffset":64,
		"byteLength":100
	},
	{
		"buffer":1,
		"byteOffset":164,
		"byteLength":64
	}],
	"animations":[{
		"samplers":[{
			"output":4,
			"input":3,
			"interpolation":"LINEAR"
		},
		{
			"output":6,
			"input":5,
			"interpolation":"LINEAR"
		},
		{
			"output":8,
			"input":7,
			"interpolation":"LINEAR"
		}],
		"channels":[{
			"sampler":0,
			"target":{
				"node":0,
				"path":"translation"
			}
		},
		{
			"sampler":1,
			"target":{
				"node":0,
				"path":"rotation"
			}
		},
		{
			"sampler":2,
			"target":{
				"node":0,
				"path":"scale"
			}
		}]
	}],
	"buffers":[{
		"uri":"data:application/octet-stream;base64,",
		"byteLength":1566000
	},
	{
		"uri":"data:application/octet-stream;base64,",
		"byteLength":228
	}],
	"materials":[{
		"pbrMetallicRoughness":{
			"baseColorFactor":[1.0,
			1.0,
			1.0,
			1.0],
			"metallicFactor":0.0,
			"roughnessFactor":0.5
		},
		"emissiveFactor":[0.0,
		0.0,
		0.0],
		"alphaMode":"OPAQUE",
		"doubleSided":false,
		"name":"Default"
	}]
}